<mxfile host="drawio-plugin" modified="2024-03-18T15:59:08.614Z" agent="5.0 (Macintosh; Intel Mac OS X 10_15_7) AppleWebKit/537.36 (KHTML, like Gecko) Chrome/111.0.0.0 Safari/537.36" etag="UGoPlMC0zjbiVx5Ru69d" version="20.5.3" type="embed"><diagram name="第 1 页" id="CLNS6JqZ1umQ_1VXlne0"><mxGraphModel dx="531" dy="615" grid="0" gridSize="10" guides="1" tooltips="1" connect="1" arrows="1" fold="1" page="1" pageScale="1" pageWidth="2339" pageHeight="3300" background="#FFFFFF" math="0" shadow="0"><root><mxCell id="0"/><mxCell id="1" parent="0"/><mxCell id="7" style="edgeStyle=orthogonalEdgeStyle;orthogonalLoop=1;jettySize=auto;html=1;fontFamily=Courier New;fontSize=16;fillColor=#ffe6cc;strokeColor=#d79b00;rounded=1;endArrow=classicThin;endFill=1;" parent="1" source="2" target="6" edge="1"><mxGeometry relative="1" as="geometry"/></mxCell><mxCell id="2" value="&lt;font style=&quot;font-size: 16px;&quot;&gt;http://&lt;/font&gt;" style="text;html=1;resizable=0;autosize=1;align=center;verticalAlign=middle;points=[];fillColor=#ffe6cc;strokeColor=none;rounded=0;fontFamily=Courier New;" parent="1" vertex="1"><mxGeometry x="265" y="211" width="85" height="31" as="geometry"/></mxCell><mxCell id="10" value="" style="edgeStyle=orthogonalEdgeStyle;rounded=1;orthogonalLoop=1;jettySize=auto;html=1;strokeColor=#82b366;fontFamily=Courier New;fontSize=16;endArrow=classicThin;endFill=1;fillColor=#d5e8d4;" parent="1" source="3" target="8" edge="1"><mxGeometry relative="1" as="geometry"/></mxCell><mxCell id="3" value="www.example.com" style="text;html=1;align=center;verticalAlign=middle;resizable=0;points=[];autosize=1;strokeColor=none;fillColor=#d5e8d4;fontSize=16;fontFamily=Courier New;" parent="1" vertex="1"><mxGeometry x="349" y="211" width="162" height="31" as="geometry"/></mxCell><mxCell id="13" value="" style="edgeStyle=orthogonalEdgeStyle;rounded=1;orthogonalLoop=1;jettySize=auto;html=1;strokeColor=#b85450;fontFamily=Courier New;fontSize=16;endArrow=classicThin;endFill=1;fillColor=#f8cecc;" parent="1" source="4" target="12" edge="1"><mxGeometry relative="1" as="geometry"/></mxCell><mxCell id="4" value=":8080" style="text;html=1;align=center;verticalAlign=middle;resizable=0;points=[];autosize=1;strokeColor=none;fillColor=#f8cecc;fontSize=16;fontFamily=Courier New;" parent="1" vertex="1"><mxGeometry x="511" y="211" width="66" height="31" as="geometry"/></mxCell><mxCell id="15" value="" style="edgeStyle=orthogonalEdgeStyle;rounded=1;orthogonalLoop=1;jettySize=auto;html=1;strokeColor=#9673a6;fontFamily=Courier New;fontSize=16;endArrow=classicThin;endFill=1;fillColor=#e1d5e7;" parent="1" source="5" target="14" edge="1"><mxGeometry relative="1" as="geometry"/></mxCell><mxCell id="5" value="/page/index.html" style="text;html=1;align=center;verticalAlign=middle;resizable=0;points=[];autosize=1;strokeColor=none;fillColor=#e1d5e7;fontSize=16;fontFamily=Courier New;" parent="1" vertex="1"><mxGeometry x="577" y="211" width="172" height="31" as="geometry"/></mxCell><mxCell id="6" value="&lt;font&gt;&lt;i&gt;Scheme&lt;/i&gt;&lt;/font&gt;" style="text;html=1;align=center;verticalAlign=middle;resizable=0;points=[];autosize=1;strokeColor=#d79b00;fillColor=#ffe6cc;fontSize=16;fontFamily=Consolas;" parent="1" vertex="1"><mxGeometry x="272" y="306" width="71" height="31" as="geometry"/></mxCell><mxCell id="8" value="&lt;font&gt;&lt;i&gt;Server alias&lt;br&gt;&lt;/i&gt;&lt;/font&gt;" style="text;html=1;align=center;verticalAlign=middle;resizable=0;points=[];autosize=1;strokeColor=#82b366;fillColor=#d5e8d4;fontSize=16;fontFamily=Consolas;" parent="1" vertex="1"><mxGeometry x="368.5" y="306" width="124" height="31" as="geometry"/></mxCell><mxCell id="12" value="&lt;font&gt;&lt;i&gt;Port&lt;/i&gt;&lt;/font&gt;" style="text;html=1;align=center;verticalAlign=middle;resizable=0;points=[];autosize=1;strokeColor=#b85450;fillColor=#f8cecc;fontSize=16;fontFamily=Consolas;" parent="1" vertex="1"><mxGeometry x="517.5" y="306" width="53" height="31" as="geometry"/></mxCell><mxCell id="14" value="&lt;font face=&quot;Consolas&quot;&gt;&lt;i&gt;Request path&lt;/i&gt;&lt;/font&gt;" style="text;html=1;align=center;verticalAlign=middle;resizable=0;points=[];autosize=1;strokeColor=#9673a6;fillColor=#e1d5e7;fontSize=16;fontFamily=Consolas;" parent="1" vertex="1"><mxGeometry x="601.5" y="306" width="124" height="31" as="geometry"/></mxCell></root></mxGraphModel></diagram></mxfile>